<svg width="80" height="80" fill="none" xmlns="http://www.w3.org/2000/svg"><path fill="#68B738" d="M0 0h80v80H0z"/><g clip-path="url(#clip0_2403_538)" fill="#fff"><path d="M45.776 42.473c-1.706 0-3.088 1.479-3.088 3.301 0 1.824 1.383 3.302 3.088 3.302 1.706 0 3.088-1.478 3.088-3.302 0-1.823-1.383-3.3-3.088-3.3zm0 5.013c-.884 0-1.6-.766-1.6-1.71 0-.947.716-1.713 1.6-1.713.884 0 1.602.766 1.602 1.712 0 .945-.718 1.711-1.602 1.711zM36.607 23.99c-1.76 0-3.187 1.525-3.187 3.407 0 1.882 1.426 3.407 3.187 3.407 1.76 0 3.187-1.524 3.187-3.407s-1.427-3.407-3.187-3.407zm0 5.476c-1.07 0-1.936-.926-1.936-2.07 0-1.142.867-2.069 1.935-2.069 1.07 0 1.936.927 1.936 2.07 0 1.143-.866 2.069-1.936 2.069zm-3.38 12.144c-1.294 0-2.341 1.12-2.341 2.503s1.047 2.503 2.34 2.503c1.295 0 2.342-1.12 2.342-2.503 0-1.382-1.047-2.502-2.341-2.502zM33 43.5c-.459 0 1.158 1.104 1.158.613 0-.49-1.617.387-1.158.387.459 0 1.057-.877 1.057-.388 0 .49-.598-.612-1.057-.612zm10.5-9.737s3.04-.839 6.178 1.494c.907.76 1.766 1.336 1.152 2.122-.343.34-.637.657-1.716-.524-1.053-.76-2.72-1.898-5.614-1.442-1.128.237-1.961.551-3.556 2.15-1.593 1.598-3.972 2.725-6.497 2.489-2.525-.236-3.849-1.258-5.246-2.542-.294-.42-.294-.865-.123-1.127.171-.262.833-.525 1.201-.132.368.394 2.109 1.966 3.825 2.07 1.716.105 3.433.21 5.737-1.965 2.306-2.174 3.458-2.331 4.66-2.593z"/><mask id="a"><path d="M53.292 51.313V32.655c0-.578-.374-.65-.524-.655h-.506c-.493 0-.536.556-.538.739v.06c.002 3.609.01 18.253-.001 18.54a2.68 2.68 0 01-.822 1.887c-.808.695-1.617.603-1.617.603s-20.177 0-20.655-.026c-.38-.066-1.042-.21-1.606-1.01-.564-.798-.453-1.847-.453-1.847V32.813c0-.839-.675-.813-.675-.813h-.307c-.536 0-.585.589-.588.777v18.537c0 1.337.454 2.398 1.548 3.337 1.094.938 2.375.856 2.375.856s19.723 0 20.582-.002c.858-.003 1.985-.417 2.915-1.556.93-1.138.872-2.636.872-2.636z"/></mask><path d="M53.292 51.313V32.655c0-.578-.374-.65-.524-.655h-.506c-.493 0-.536.556-.538.739v.06c.002 3.609.01 18.253-.001 18.54a2.68 2.68 0 01-.822 1.887c-.808.695-1.617.603-1.617.603s-20.177 0-20.655-.026c-.38-.066-1.042-.21-1.606-1.01-.564-.798-.453-1.847-.453-1.847V32.813c0-.839-.675-.813-.675-.813h-.307c-.536 0-.585.589-.588.777v18.537c0 1.337.454 2.398 1.548 3.337 1.094.938 2.375.856 2.375.856s19.723 0 20.582-.002c.858-.003 1.985-.417 2.915-1.556.93-1.138.872-2.636.872-2.636z"/><path d="M53.292 51.313h-20v.388l.015.387 19.985-.775zM52.768 32l.71-19.987-.355-.013h-.355v20zm-1.044.739l-19.999-.15v.15h20zm0 .06h-20v.008l20-.008zm-.001 18.54l-19.986-.758v.012l19.986.746zm-.822 1.887l13.04 15.165.431-.37.41-.396-13.88-14.399zm-1.617.603l2.26-19.872-1.127-.128h-1.133v20zm-20.655-.026l-3.395 19.71 1.134.195 1.148.064 1.113-19.97zm-1.606-1.01L10.679 64.322l.004.006 16.34-11.533zm-.453-1.847l19.89 2.098.11-1.046v-1.052h-20zm-.675-18.945v20h.388l.388-.015L25.895 32zm-.895.776l-19.998-.289-.002.145v.144h20zm1.548 21.874L13.522 69.827v.001l13.026-15.177zm2.375.856v-20h-.642l-.641.041 1.283 19.96zM52.42 53.95l15.49 12.652.005-.007L52.42 53.95zm20.872-2.637V32.655h-40v18.658h40zm0-18.658c0-4.97-1.859-11.42-7.618-16.084-4.89-3.96-10.03-4.481-12.196-4.558l-1.42 39.974a19.462 19.462 0 01-11.56-4.333c-5.535-4.483-7.206-10.607-7.206-14.999h40zM52.768 12h-.506v40h.506V12zm-.506 0a20.47 20.47 0 00-12.283 4.083 20.526 20.526 0 00-6.419 8.034 21.133 21.133 0 00-1.835 8.472l39.999.299c-.006.733-.014 3.913-1.666 7.598a19.476 19.476 0 01-6.097 7.61A19.53 19.53 0 0152.262 52V12zM31.724 32.739v.051h40v-.05h-40zm0 .05v.011h40v-.009h-40zm0 .018l.004 10.511a8748.826 8748.826 0 01-.002 7.252c-.002.788-.006.45.011.011l39.971 1.516c.02-.511.018-1.37.018-1.45l.002-1.807v-5.53c0-4.15-.003-8.719-.004-10.52l-40 .016zm.012 17.786c.05-1.348.384-7.041 5.285-11.766l27.761 28.798c6.396-6.166 6.852-13.536 6.927-15.54l-39.973-1.492zm6.126-12.532a17.513 17.513 0 017.807-3.843 17.964 17.964 0 014.628-.362 19.022 19.022 0 011.21.097l.018.002c.01.001.019.002-2.241 19.874-2.26 19.872-2.25 19.873-2.241 19.874l.018.002a4.797 4.797 0 00.114.013 24.403 24.403 0 00.477.045 20.79 20.79 0 002.275.063 22.044 22.044 0 003.983-.467 22.487 22.487 0 0010.031-4.968l-26.079-30.33zM49.284 53.83v-20h-3.156a15693.387 15693.387 0 01-14.032-.01l-2.357-.007c-1.071-.005-.613-.013.002.022l-2.225 39.938c.97.054 7.17.051 11.607.054l6.996.003h3.164v-20zM32.023 34.093c.432.074 2.526.427 4.938 1.653a17.617 17.617 0 016.401 5.514L10.683 64.327c4.995 7.076 11.877 8.725 14.551 9.186l6.789-39.42zm11.344 7.173c2.348 3.33 2.908 6.51 3.08 7.955a16.553 16.553 0 01.079 3.041 17.724 17.724 0 01-.064.758l-.002.012c0 .006 0 .012-19.89-2.086S6.68 48.854 6.679 48.86l-.002.012-.002.024a19.85 19.85 0 00-.069.827 23.437 23.437 0 00.117 4.197c.257 2.17 1.043 6.272 3.956 10.401l32.688-23.055zm3.203 9.68V32.813h-40v18.133h40zm0-18.133c0-6.89-3.412-14.004-10.265-18a20.692 20.692 0 00-11.136-2.8l-.025.002c-.012 0-.024 0 .751 19.986.776 19.985.764 19.985.751 19.985l-.024.001-.049.002a29.076 29.076 0 01-.301.008A19.378 19.378 0 0116.16 49.37a19.386 19.386 0 01-7.239-7.433 19.028 19.028 0 01-2.351-9.124h40zM25.895 12h-.307v40h.307V12zm-.307 0c-4.037 0-8.32 1.192-12.061 3.906a20.562 20.562 0 00-6.553 7.946 21.167 21.167 0 00-1.972 8.636l39.996.578c-.011.758-.045 3.996-1.784 7.718a19.438 19.438 0 01-6.2 7.5 19.477 19.477 0 01-11.426 3.717V12zM5 32.778v18.537h40V32.777H5zm0 18.537c0 7.063 2.92 13.705 8.522 18.514l26.052-30.354c1.294 1.111 2.854 2.871 3.993 5.373A15.716 15.716 0 0145 51.314H5zm8.523 18.514a23.586 23.586 0 0010.48 5.17 23.603 23.603 0 005.088.51 21.338 21.338 0 00.99-.034l.063-.004a3.432 3.432 0 01.046-.003c.008 0 .016-.001-1.267-19.96s-1.276-19.96-1.268-19.96h.015l.03-.002a11.917 11.917 0 01.434-.022 18.505 18.505 0 011.583.008c.737.037 1.607.13 2.571.334 1.88.398 4.642 1.34 7.285 3.608l-26.05 30.355zm15.4-14.32v20h3.096a546827.136 546827.136 0 0117.543-.003l-.113-40h-1.082l-2.443.001h-7.032l-6.873.001h-3.095v20zM49.56 75.504c7.104-.02 13.8-3.336 18.348-8.903L36.932 41.296c2.687-3.289 7.129-5.776 12.516-5.791l.113 40zm18.354-8.91c3.246-3.977 4.434-8.096 4.913-10.529a24.742 24.742 0 00.464-4.58 22.349 22.349 0 00-.014-.921v-.013c-.001-.006-.001-.013-19.986.761-19.985.775-19.986.768-19.986.762v-.013l-.001-.025-.002-.05-.003-.102a17.067 17.067 0 01.02-1.467c.032-.576.104-1.28.261-2.075.275-1.4 1.028-4.201 3.344-7.04l30.99 25.292z" mask="url(#a)"/></g><defs><clipPath id="clip0_2403_538"><path fill="#fff" transform="translate(25 24)" d="M0 0h29v31H0z"/></clipPath></defs></svg>